HIERARCHY
ROOT root
{
	OFFSET	0	13.1	24.9
	CHANNELS 6  Xposition Yposition Zposition Xrotation Yrotation Zrotation
	JOINT spine_1
	{
		OFFSET	0	9.99999	0
		CHANNELS 3  Xrotation Yrotation Zrotation
		JOINT spine_2
		{
			OFFSET	0	112	-10
			CHANNELS 3  Xrotation Yrotation Zrotation
			JOINT spine_3
			{
				OFFSET	0	206.5	19.3
				CHANNELS 3  Xrotation Yrotation Zrotation
				JOINT spine_4
				{
					OFFSET	0	110.4	14.6
					CHANNELS 3  Xrotation Yrotation Zrotation
					JOINT neck_1
					{
						OFFSET	0	71.8	-50.3
						CHANNELS 3  Xrotation Yrotation Zrotation
						JOINT neck_2
						{
							OFFSET	0	86.2	-25.8
							CHANNELS 3  Xrotation Yrotation Zrotation
							JOINT head_ee
							{
								OFFSET	0	179.8	-8.7
								CHANNELS 3  Xrotation Yrotation Zrotation
								End Site
								{
									OFFSET	1	0	0
								}
							}
						}
					}
					JOINT left_clavicle
					{
						OFFSET	-43.2	22.4	-70.8
						CHANNELS 3  Xrotation Yrotation Zrotation
						JOINT left_shoulder
						{
							OFFSET	-93.9	-5.79999	48.7
							CHANNELS 3  Xrotation Yrotation Zrotation
							JOINT left_elbow
							{
								OFFSET	-291.4	-30.8	15.2
								CHANNELS 3  Xrotation Yrotation Zrotation
								JOINT left_lowarm_twist
								{
									OFFSET	-110.7	-3.89999	13.6
									CHANNELS 3  Xrotation Yrotation Zrotation
									JOINT left_hand
									{
										OFFSET	-110.7	-3.89999	13.6
										CHANNELS 3  Xrotation Yrotation Zrotation
										JOINT left_ee
										{
											OFFSET	-80.8	-5.10001	12.1
											CHANNELS 3  Xrotation Yrotation Zrotation
											End Site
											{
												OFFSET	1	0	0
											}
										}
									}
								}
							}
						}
					}
					JOINT right_clavicle
					{
						OFFSET	43.2	22.4	-70.8
						CHANNELS 3  Xrotation Yrotation Zrotation
						JOINT right_shoulder
						{
							OFFSET	93.9	-5.79999	48.7
							CHANNELS 3  Xrotation Yrotation Zrotation
							JOINT right_elbow
							{
								OFFSET	291.4	-30.8	15.2
								CHANNELS 3  Xrotation Yrotation Zrotation
								JOINT right_lowarm_twist
								{
									OFFSET	110.7	-3.89999	13.6
									CHANNELS 3  Xrotation Yrotation Zrotation
									JOINT right_hand
									{
										OFFSET	110.7	-3.89999	13.6
										CHANNELS 3  Xrotation Yrotation Zrotation
										JOINT right_ee
										{
											OFFSET	80.8	-5.10001	12.1
											CHANNELS 3  Xrotation Yrotation Zrotation
											End Site
											{
												OFFSET	1	0	0
											}
										}
									}
								}
							}
						}
					}
				}
			}
		}
	}
	JOINT left_hip
	{
		OFFSET	-82.8	-127.5	0.300001
		CHANNELS 3  Xrotation Yrotation Zrotation
		JOINT left_knee
		{
			OFFSET	-28.2	-396.7	2.2
			CHANNELS 3  Xrotation Yrotation Zrotation
			JOINT left_ankle
			{
				OFFSET	-11.7	-411.3	35.4
				CHANNELS 3  Xrotation Yrotation Zrotation
				JOINT left_toes
				{
					OFFSET	0	-60	-88.6
					CHANNELS 3  Xrotation Yrotation Zrotation
					JOINT left_foot_ee
					{
						OFFSET	-22.5	-16.5	-42.2
						CHANNELS 3  Xrotation Yrotation Zrotation
						End Site
						{
							OFFSET	1	0	0
						}
					}
				}
			}
		}
	}
	JOINT right_hip
	{
		OFFSET	82.8	-127.5	0.300001
		CHANNELS 3  Xrotation Yrotation Zrotation
		JOINT right_knee
		{
			OFFSET	28.2	-396.7	2.2
			CHANNELS 3  Xrotation Yrotation Zrotation
			JOINT right_ankle
			{
				OFFSET	11.7	-411.3	35.4
				CHANNELS 3  Xrotation Yrotation Zrotation
				JOINT right_toes
				{
					OFFSET	0	-60	-88.6
					CHANNELS 3  Xrotation Yrotation Zrotation
					JOINT right_foot_ee
					{
						OFFSET	22.5	-16.5	-42.2
						CHANNELS 3  Xrotation Yrotation Zrotation
						End Site
						{
							OFFSET	1	0	0
						}
					}
				}
			}
		}
	}
}
MOTION
Frames: 12
Frame Time: 0.02
2530.06570064 739.539 -1476.06193685 -176.358847238 80.1578912087 168.40640916 2.30743 0.691406 3.70522 2.31495 0.454401 3.74164 2.3439 -0.188294 3.76439 2.32436 0.408157 3.74696 -6.9083 5.57036 -5.40364 -6.80091 14.2443 -4.3033 -0.0 0.0 -0.0 -4.17193 13.9106 -5.1995 -21.4325 -40.8101 61.9826 0.21795 -6.16228 0.0117318 -39.6731 -2.91647 4.03708 2.96714 8.6216 23.4538 -0.0 0.0 -0.0 9.93542 -0.0308126 -19.5202 -5.79445 13.5524 -71.1272 2.25554 48.1651 -1.00823 9.73442 -0.23993 1.21884 1.84599 -21.1466 -19.7754 0.0 0.0 0.0 11.0519 -5.88973 3.94582 -37.5019 -0.315534 5.64537 29.5727 -3.84577 -3.90149 -1.9061 0.0 0.0 -0.0 0.0 -0.0 1.8353 24.5923 3.25444 4.33673 0.202725 0.634343 22.6549 -23.5641 3.18798 3.39114 -0.0 -0.0 0.0 0.0 0.0 
2528.5331942 741.962 -1468.25737121 -175.551162826 76.8171423522 167.698138622 2.12622 0.54266 3.9611 2.1349 0.28971 3.98755 2.15448 -0.406024 3.9774 2.13248 0.226712 3.99162 -7.98699 4.92355 -6.02484 -7.88348 13.4431 -4.91822 -0.0 0.0 -0.0 -4.23829 12.4322 -5.63995 -22.759 -40.4742 61.8833 0.261723 -7.38735 0.0168959 -39.7162 -2.92103 4.0402 3.46549 9.69635 27.4082 -0.0 0.0 -0.0 10.1215 -0.0116473 -19.9055 -5.16615 13.4607 -70.6095 2.51979 51.2923 -1.20993 10.9087 -0.254779 1.3681 1.81043 -18.4338 -18.747 0.0 0.0 0.0 13.0737 -8.83872 4.32609 -30.5438 0.0228547 4.6322 27.4226 -4.17905 -3.6685 -2.14954 0.0 0.0 -0.0 0.0 -0.0 2.40684 24.0673 3.12225 4.64947 0.219196 0.679481 25.185 -25.5128 3.54168 3.56749 -0.0 -0.0 0.0 0.0 0.0 
2527.12298618 742.869 -1459.56722118 -173.943870146 75.6380187408 166.099082651 2.11639 0.605017 3.99039 2.12518 0.350082 4.02074 2.14923 -0.352556 4.02052 2.1268 0.286305 4.02577 -8.7732 4.8832 -6.05039 -8.68641 13.3452 -4.85123 -0.0 0.0 -0.0 -4.16067 11.9363 -5.61718 -23.5328 -40.2856 62.8252 0.232313 -6.56493 0.0133237 -39.6979 -2.91909 4.03887 3.83024 10.4347 30.3574 -0.0 0.0 -0.0 10.382 0.0983272 -20.4516 -5.50715 13.8617 -70.3944 2.63441 52.5289 -1.30015 11.4218 -0.260307 1.43341 1.75216 -16.9066 -17.8967 0.0 0.0 0.0 14.9867 -8.94123 4.54057 -28.9668 0.082253 4.39747 25.7975 -4.34177 -3.48536 -2.31735 0.0 0.0 -0.0 0.0 -0.0 1.9215 23.5611 3.40381 4.69725 0.221734 0.686369 27.032 -26.7043 3.7961 4.18496 -0.0 -0.0 0.0 0.0 0.0 
2521.0363645 743.012 -1450.25899713 -172.903302831 70.9729522299 166.738719562 1.99888 0.302202 3.98961 2.00773 0.0479278 4.00074 2.01055 -0.656937 3.94681 1.98882 -0.0258864 4.00094 -6.77658 1.53615 -6.54566 -6.64054 7.60263 -6.26763 -0.0 0.0 -0.0 -4.34616 9.16222 -6.54945 -23.2804 -39.557 64.3203 0.270904 -7.64347 0.0180967 -36.103 -2.54657 3.76696 5.3415 5.1438 40.8304 -0.0 0.0 -0.0 10.4875 0.455103 -20.6907 -7.15283 14.2854 -67.5309 3.27087 58.305 -1.82481 14.8305 -0.282156 1.86818 3.08887 -5.80796 -23.3374 0.0 0.0 0.0 16.8026 -11.5494 3.48581 -18.6204 0.309505 2.82814 17.9223 4.5643 -2.47271 -3.70545 0.0 0.0 -0.0 0.0 -0.0 2.90985 22.4406 1.85936 4.71001 0.222413 0.688208 23.1282 -27.0496 3.31409 2.52245 -0.0 -0.0 0.0 0.0 0.0 
2486.70380202 748.799 -1446.31482961 -166.631014887 72.1708541198 161.004900754 1.79975 0.608756 3.58559 1.80682 0.379515 3.617 1.83106 -0.273539 3.62655 1.81284 0.302252 3.62427 -9.54842 5.58082 -5.25849 -9.51125 14.071 -3.8023 -0.0 0.0 -0.0 -3.64553 0.810765 -6.93282 -17.5229 -44.3687 68.9772 0.370906 -10.4114 0.0337924 -29.2968 -1.8913 3.19092 7.04644 -4.8361 52.4305 -0.0 0.0 -0.0 10.8712 -10.9228 -20.3775 -14.8687 12.5668 -63.7686 1.88609 43.0506 -0.743969 14.7204 -0.281855 1.85412 6.1895 16.0632 -36.855 0.0 0.0 0.0 13.1634 -13.5605 4.77863 -8.24577 0.250659 1.23956 18.844 20.193 -2.65389 -6.91623 0.0 0.0 -0.0 0.0 -0.0 2.56081 19.6706 3.31458 1.88297 0.0821072 0.277261 30.7031 -26.872 4.23753 -10.2096 0.0 0.0 0.0 0.0 0.0 
2486.8078244 748.799 -1445.14919022 -166.782050865 71.9639796953 161.16364853 1.79975 0.608756 3.58559 1.80682 0.379515 3.617 1.83106 -0.273539 3.62655 1.81284 0.302252 3.62427 -9.54842 5.58082 -5.25849 -9.51125 14.071 -3.8023 -0.0 0.0 -0.0 -3.64553 0.810765 -6.93282 -17.5229 -44.3687 68.9772 0.370906 -10.4114 0.0337924 -29.2968 -1.8913 3.19092 7.04644 -4.8361 52.4305 -0.0 0.0 -0.0 10.8712 -10.9228 -20.3775 -14.8687 12.5668 -63.7686 1.88609 43.0506 -0.743969 14.7204 -0.281855 1.85412 6.1895 16.0632 -36.855 0.0 0.0 0.0 13.1634 -13.5605 4.77863 -8.24577 0.250659 1.23956 18.844 20.193 -2.65389 -6.91623 0.0 0.0 -0.0 0.0 -0.0 2.56081 19.6706 3.31458 1.88297 0.0821072 0.277261 30.7031 -26.872 4.23753 -10.2096 0.0 0.0 0.0 0.0 0.0 
2486.97727579 748.799 -1443.34661577 -167.008888298 71.6436770388 161.402425588 1.79975 0.608756 3.58559 1.80682 0.379515 3.617 1.83106 -0.273539 3.62655 1.81284 0.302252 3.62427 -9.54842 5.58082 -5.25849 -9.51125 14.071 -3.8023 -0.0 0.0 -0.0 -3.64553 0.810765 -6.93282 -17.5229 -44.3687 68.9772 0.370906 -10.4114 0.0337924 -29.2968 -1.8913 3.19092 7.04644 -4.8361 52.4305 -0.0 0.0 -0.0 10.8712 -10.9228 -20.3775 -14.8687 12.5668 -63.7686 1.88609 43.0506 -0.743969 14.7204 -0.281855 1.85412 6.1895 16.0632 -36.855 0.0 0.0 0.0 13.1634 -13.5605 4.77863 -8.24577 0.250659 1.23956 18.844 20.193 -2.65389 -6.91623 0.0 0.0 -0.0 0.0 -0.0 2.56081 19.6706 3.31458 1.88297 0.0821072 0.277261 30.7031 -26.872 4.23753 -10.2096 0.0 0.0 0.0 0.0 0.0 
2487.28797708 748.799 -1440.2948896 -167.37532879 71.1003496986 161.789119761 1.79975 0.608756 3.58559 1.80682 0.379515 3.617 1.83106 -0.273539 3.62655 1.81284 0.302252 3.62427 -9.54842 5.58082 -5.25849 -9.51125 14.071 -3.8023 -0.0 0.0 -0.0 -3.64553 0.810765 -6.93282 -17.5229 -44.3687 68.9772 0.370906 -10.4114 0.0337924 -29.2968 -1.8913 3.19092 7.04644 -4.8361 52.4305 -0.0 0.0 -0.0 10.8712 -10.9228 -20.3775 -14.8687 12.5668 -63.7686 1.88609 43.0506 -0.743969 14.7204 -0.281855 1.85412 6.1895 16.0632 -36.855 0.0 0.0 0.0 13.1634 -13.5605 4.77863 -8.24577 0.250659 1.23956 18.844 20.193 -2.65389 -6.91623 0.0 0.0 -0.0 0.0 -0.0 2.56081 19.6706 3.31458 1.88297 0.0821072 0.277261 30.7031 -26.872 4.23753 -10.2096 0.0 0.0 0.0 0.0 0.0 
2487.44713644 748.799 -1438.83579042 -167.543167825 70.840104818 161.966661113 1.79975 0.608756 3.58559 1.80682 0.379515 3.617 1.83106 -0.273539 3.62655 1.81284 0.302252 3.62427 -9.54842 5.58082 -5.25849 -9.51125 14.071 -3.8023 -0.0 0.0 -0.0 -3.64553 0.810765 -6.93282 -17.5229 -44.3687 68.9772 0.370906 -10.4114 0.0337924 -29.2968 -1.8913 3.19092 7.04644 -4.8361 52.4305 -0.0 0.0 -0.0 10.8712 -10.9228 -20.3775 -14.8687 12.5668 -63.7686 1.88609 43.0506 -0.743969 14.7204 -0.281855 1.85412 6.1895 16.0632 -36.855 0.0 0.0 0.0 13.1634 -13.5605 4.77863 -8.24577 0.250659 1.23956 18.844 20.193 -2.65389 -6.91623 0.0 0.0 -0.0 0.0 -0.0 2.56081 19.6706 3.31458 1.88297 0.0821072 0.277261 30.7031 -26.872 4.23753 -10.2096 0.0 0.0 0.0 0.0 0.0 
2487.24694985 748.799 -1440.68156111 -167.330071499 71.16926581 161.741293336 1.79975 0.608756 3.58559 1.80682 0.379515 3.617 1.83106 -0.273539 3.62655 1.81284 0.302252 3.62427 -9.54842 5.58082 -5.25849 -9.51125 14.071 -3.8023 -0.0 0.0 -0.0 -3.64553 0.810765 -6.93282 -17.5229 -44.3687 68.9772 0.370906 -10.4114 0.0337924 -29.2968 -1.8913 3.19092 7.04644 -4.8361 52.4305 -0.0 0.0 -0.0 10.8712 -10.9228 -20.3775 -14.8687 12.5668 -63.7686 1.88609 43.0506 -0.743969 14.7204 -0.281855 1.85412 6.1895 16.0632 -36.855 0.0 0.0 0.0 13.1634 -13.5605 4.77863 -8.24577 0.250659 1.23956 18.844 20.193 -2.65389 -6.91623 0.0 0.0 -0.0 0.0 -0.0 2.56081 19.6706 3.31458 1.88297 0.0821072 0.277261 30.7031 -26.872 4.23753 -10.2096 0.0 0.0 0.0 0.0 0.0 
2487.32149748 748.799 -1439.98228957 -167.411675467 71.0446197649 161.827544046 1.79975 0.608756 3.58559 1.80682 0.379515 3.617 1.83106 -0.273539 3.62655 1.81284 0.302252 3.62427 -9.54842 5.58082 -5.25849 -9.51125 14.071 -3.8023 -0.0 0.0 -0.0 -3.64553 0.810765 -6.93282 -17.5229 -44.3687 68.9772 0.370906 -10.4114 0.0337924 -29.2968 -1.8913 3.19092 7.04644 -4.8361 52.4305 -0.0 0.0 -0.0 10.8712 -10.9228 -20.3775 -14.8687 12.5668 -63.7686 1.88609 43.0506 -0.743969 14.7204 -0.281855 1.85412 6.1895 16.0632 -36.855 0.0 0.0 0.0 13.1634 -13.5605 4.77863 -8.24577 0.250659 1.23956 18.844 20.193 -2.65389 -6.91623 0.0 0.0 -0.0 0.0 -0.0 2.56081 19.6706 3.31458 1.88297 0.0821072 0.277261 30.7031 -26.872 4.23753 -10.2096 0.0 0.0 0.0 0.0 0.0 
2485.16184993 747.223 -1458.61695418 -166.567401525 74.8629248638 161.490341717 1.84615 0.512648 3.55018 1.85311 0.28585 3.57556 1.87105 -0.355957 3.56927 1.85334 0.211837 3.5807 -14.1367 5.86848 -5.54018 -14.214 14.5634 -3.39005 -0.0 0.0 -0.0 -3.67401 -1.81942 -7.47379 -13.7236 -43.36 70.2824 0.437063 -12.2166 0.0467729 -27.2407 -1.70735 3.00214 7.2794 -5.90577 54.2727 -0.0 0.0 -0.0 10.7566 -13.8497 -19.7428 -12.58 12.896 -64.391 1.1535 29.7431 -0.306319 15.2812 -0.283108 1.92574 5.30934 16.0018 -29.9552 0.0 0.0 0.0 11.6991 -15.1389 4.02449 -7.90769 0.243907 1.18812 21.6407 18.7165 -2.99444 -11.5898 0.0 0.0 -0.0 0.0 -0.0 2.54508 18.1715 3.43591 1.05635 0.0449384 0.15587 34.3014 -25.2064 4.59308 -14.5644 0.0 0.0 0.0 0.0 0.0 
